<svg width="17" height="13" viewBox="0 0 17 13" fill="none" xmlns="http://www.w3.org/2000/svg">
<path d="M0.118608 11.5V1.31818H3.74787C4.5367 1.31818 5.19129 1.45407 5.71165 1.72585C6.23532 1.99763 6.62642 2.37382 6.88494 2.8544C7.14347 3.33168 7.27273 3.88352 7.27273 4.50994C7.27273 5.13305 7.14181 5.68158 6.87997 6.15554C6.62145 6.62618 6.23035 6.99242 5.70668 7.25426C5.18632 7.5161 4.53172 7.64702 3.7429 7.64702H0.993608V6.32457H3.60369C4.10085 6.32457 4.50521 6.25331 4.81676 6.1108C5.13163 5.96828 5.36198 5.76113 5.50781 5.48935C5.65365 5.21757 5.72656 4.8911 5.72656 4.50994C5.72656 4.12547 5.65199 3.79238 5.50284 3.51065C5.35701 3.22893 5.12666 3.01349 4.81179 2.86435C4.50024 2.71188 4.09091 2.63565 3.58381 2.63565H1.65483V11.5H0.118608ZM5.14489 6.90625L7.66051 11.5H5.91051L3.4446 6.90625H5.14489ZM12.1449 12.7727V0.0454538H12.9602V12.7727H12.1449ZM14.6953 3.9929C14.6423 3.52225 14.4235 3.15767 14.0391 2.89915C13.6546 2.63731 13.1707 2.50639 12.5874 2.50639C12.1697 2.50639 11.8085 2.57268 11.5036 2.70526C11.1986 2.83452 10.9616 3.01349 10.7926 3.24219C10.6269 3.46757 10.544 3.72443 10.544 4.01278C10.544 4.25473 10.6004 4.46354 10.7131 4.6392C10.8291 4.81487 10.9799 4.96236 11.1655 5.08168C11.3544 5.19768 11.5566 5.29545 11.772 5.375C11.9875 5.45123 12.1946 5.5142 12.3935 5.56392L13.3878 5.82244C13.7126 5.90199 14.0457 6.00971 14.3871 6.1456C14.7285 6.28149 15.045 6.46046 15.3366 6.68253C15.6283 6.90459 15.8636 7.17969 16.0426 7.50781C16.2249 7.83594 16.3161 8.22869 16.3161 8.68608C16.3161 9.26278 16.1669 9.77486 15.8686 10.2223C15.5736 10.6697 15.1444 11.0227 14.581 11.2812C14.0208 11.5398 13.343 11.669 12.5476 11.669C11.7853 11.669 11.1257 11.5481 10.5689 11.3061C10.0121 11.0642 9.57623 10.7211 9.26136 10.277C8.9465 9.82955 8.77249 9.29924 8.73935 8.68608H10.2805C10.3104 9.05398 10.4297 9.36056 10.6385 9.60582C10.8506 9.84777 11.1207 10.0284 11.4489 10.1477C11.7803 10.2637 12.1432 10.3217 12.5376 10.3217C12.9718 10.3217 13.358 10.2538 13.696 10.1179C14.0374 9.97869 14.3059 9.78646 14.5014 9.54119C14.697 9.29261 14.7947 9.0026 14.7947 8.67116C14.7947 8.36955 14.7086 8.12263 14.5362 7.9304C14.3672 7.73816 14.1368 7.57907 13.8452 7.45312C13.5568 7.32718 13.2304 7.21615 12.8658 7.12003L11.6626 6.7919C10.8473 6.56984 10.201 6.24337 9.72372 5.8125C9.24976 5.38163 9.01278 4.81155 9.01278 4.10227C9.01278 3.51562 9.17188 3.00355 9.49006 2.56605C9.80824 2.12855 10.2391 1.78883 10.7827 1.54688C11.3262 1.30161 11.9394 1.17898 12.6222 1.17898C13.3116 1.17898 13.9197 1.29995 14.4467 1.5419C14.977 1.78385 15.3946 2.11695 15.6996 2.54119C16.0045 2.96212 16.1636 3.44602 16.1768 3.9929H14.6953Z" fill="#495057"/>
</svg>
